<svg width="24" height="24" viewBox="0 0 24 24" fill="none" xmlns="http://www.w3.org/2000/svg">
  <path d="M12 12H12.01" stroke="#1e3a8a" stroke-width="2" stroke-linecap="round" stroke-linejoin="round"/>
  <path d="M19.07 4.93C20.9447 6.80528 21.9979 9.34836 21.9979 12C21.9979 14.6516 20.9447 17.1947 19.07 19.07M4.93 19.07C3.05529 17.1947 2.00214 14.6516 2.00214 12C2.00214 9.34836 3.05529 6.80528 4.93 4.93M16.95 7.05C18.0435 8.14347 18.6652 9.62276 18.6652 11.17C18.6652 12.7172 18.0435 14.1965 16.95 15.29M7.05 15.29C5.95653 14.1965 5.33477 12.7172 5.33477 11.17C5.33477 9.62276 5.95653 8.14347 7.05 7.05" stroke="#1e3a8a" stroke-width="2" stroke-linecap="round" stroke-linejoin="round"/>
</svg> 