<svg width="24" height="24" viewBox="0 0 24 24" fill="none" xmlns="http://www.w3.org/2000/svg">
  <path d="M3 3H5L5.4 5M7 13H17L21 5H5.4M7 13L5.4 5M7 13L4.7 16M17 13L19.3 16M4.7 16H19.3M4.7 16L3 18H21L19.3 16" stroke="#1e3a8a" stroke-width="2" stroke-linecap="round" stroke-linejoin="round"/>
  <path d="M9 20C9 20.5523 8.55228 21 8 21C7.44772 21 7 20.5523 7 20C7 19.4477 7.44772 19 8 19C8.55228 19 9 19.4477 9 20Z" stroke="#1e3a8a" stroke-width="2"/>
  <path d="M17 20C17 20.5523 16.5523 21 16 21C15.4477 21 15 20.5523 15 20C15 19.4477 15.4477 19 16 19C16.5523 19 17 19.4477 17 20Z" stroke="#1e3a8a" stroke-width="2"/>
</svg> 